<svg width="222" height="250" viewBox="0 0 222 250" fill="none" xmlns="http://www.w3.org/2000/svg">
<path d="M100.852 2.6795C107.04 -0.893151 114.664 -0.893151 120.852 2.6795L211.703 55.1326C217.891 58.7053 221.703 65.3078 221.703 72.4529V177.359C221.703 184.504 217.891 191.107 211.703 194.68L120.852 247.133C114.664 250.705 107.04 250.705 100.852 247.133L10 194.68C3.81218 191.107 0.000132958 184.504 0 177.359V72.4529C0 65.3078 3.8122 58.7053 10 55.1326L100.852 2.6795ZM129.688 126.602C129.537 128.98 128.383 131.278 126.321 132.811L112.356 143.195L94.7471 156.765C92.2906 158.659 90.8517 161.585 90.8516 164.686V199.791C90.8517 202.199 92.3056 204.267 94.3828 205.167C94.4696 203.577 95.2349 202.036 96.6104 201.01L109.144 191.656L128.513 177.086C131.024 175.197 132.501 172.237 132.501 169.095V131.785C132.501 129.614 131.381 127.705 129.688 126.602ZM125.116 122.771C123.343 120.508 120.07 120.111 117.807 121.885L98.9326 136.678C96.6696 138.451 96.2722 141.724 98.0459 143.987C99.8196 146.25 103.092 146.646 105.355 144.873L124.229 130.08C126.492 128.306 126.89 125.034 125.116 122.771ZM90.8516 87.532V135.364C90.8517 137.49 92.0518 139.334 93.8105 140.26C93.8183 137.704 94.9888 135.183 97.1973 133.541L102.646 129.489L157.23 87.532H90.8516ZM110.7 44.9061C99.7381 44.9061 90.8516 53.7926 90.8516 64.7547C90.8517 75.7167 99.7382 84.6033 110.7 84.6033C121.662 84.6033 130.549 75.7167 130.549 64.7547C130.549 53.7926 121.662 44.9061 110.7 44.9061Z" fill="url(#paint0_linear_2_52)"/>
<defs>
<linearGradient id="paint0_linear_2_52" x1="-17.1484" y1="-3.09418" x2="238.852" y2="252.906" gradientUnits="userSpaceOnUse">
<stop stop-color="#329CE5"/>
<stop offset="1" stop-color="#1C577F"/>
</linearGradient>
</defs>
</svg>
