<svg width="256" height="256" viewBox="0 0 256 256" fill="none" xmlns="http://www.w3.org/2000/svg">
<path fill-rule="evenodd" clip-rule="evenodd" d="M118 5.77349C124.188 2.20083 131.812 2.20083 138 5.77349L228.852 58.2266C235.039 61.7993 238.852 68.4017 238.852 75.5469V180.453C238.851 187.598 235.039 194.201 228.852 197.773L138 250.227C131.812 253.799 124.188 253.799 118 250.227L27.1484 197.773C20.9606 194.201 17.1486 187.598 17.1484 180.453V75.5469C17.1484 68.4017 20.9606 61.7993 27.1484 58.2266L118 5.77349ZM146.837 129.696C146.685 132.074 145.531 134.372 143.47 135.905L129.505 146.289L111.896 159.859C109.439 161.753 108 164.679 108 167.78V202.885C108 205.293 109.454 207.361 111.531 208.261C111.618 206.671 112.383 205.13 113.759 204.104L126.292 194.75L145.661 180.18C148.172 178.291 149.649 175.331 149.649 172.189V134.879C149.649 132.708 148.53 130.799 146.837 129.696ZM142.265 125.865C140.491 123.602 137.218 123.205 134.955 124.979L116.081 139.772C113.818 141.545 113.421 144.818 115.194 147.081C116.968 149.344 120.241 149.74 122.504 147.967L141.378 133.174C143.641 131.4 144.038 128.128 142.265 125.865ZM108 90.626V138.458C108 140.584 109.2 142.428 110.959 143.354C110.967 140.798 112.137 138.277 114.346 136.635L119.794 132.583L174.379 90.626H108ZM127.849 48C116.887 48.0001 108 56.8866 108 67.8487C108 78.8107 116.887 87.6973 127.849 87.6973C138.811 87.6973 147.697 78.8107 147.697 67.8487C147.697 56.8866 138.811 48 127.849 48Z" fill="url(#paint0_linear_8_3)"/>
<defs>
<linearGradient id="paint0_linear_8_3" x1="0" y1="0" x2="256" y2="256" gradientUnits="userSpaceOnUse">
<stop stop-color="#329CE5"/>
<stop offset="1" stop-color="#329CE5" stop-opacity="0.5"/>
</linearGradient>
</defs>
</svg>
