<svg width="256" height="256" viewBox="0 0 256 256" fill="none" xmlns="http://www.w3.org/2000/svg">
<path d="M118 5.77346C124.188 2.2008 131.812 2.2008 138 5.77346L228.852 58.2266C235.039 61.7993 238.852 68.4017 238.852 75.5469V180.453C238.851 187.598 235.039 194.201 228.852 197.773L138 250.227C131.812 253.799 124.188 253.799 118 250.227L27.1484 197.773C20.9606 194.201 17.1486 187.598 17.1484 180.453V75.5469C17.1484 68.4017 20.9606 61.7993 27.1484 58.2266L118 5.77346ZM174.95 117.8C175.35 119.5 175.625 121.2 175.775 122.899C175.925 124.599 176 126.3 176 128C176 141.3 171.325 152.625 161.975 161.975C152.625 171.325 141.3 176 128 176C117.9 176 108.85 173.2 100.85 167.6C92.8499 162 87.0502 154.8 83.4502 146C80.6502 146.1 77.9748 145.575 75.4248 144.425C72.8749 143.275 70.7498 141.599 69.0498 139.399C71.6498 153.399 78.425 165 89.375 174.2C100.325 183.4 113.2 188 128 188C136.3 188 144.1 186.424 151.4 183.274C158.7 180.124 165.05 175.85 170.45 170.45C175.85 165.05 180.125 158.699 183.275 151.399C186.425 144.1 188 136.3 188 128C188 126.3 187.925 124.675 187.775 123.125C187.625 121.575 187.45 119.999 187.25 118.399C186.45 118.599 185.6 118.75 184.7 118.85C183.8 118.95 182.9 119 182 119C180.7 119 179.475 118.9 178.325 118.7C177.175 118.5 176.05 118.2 174.95 117.8ZM87.5 120.2C85.3 119 83.0248 118.725 80.6748 119.375C78.3249 120.025 76.5002 121.4 75.2002 123.5C74.0002 125.7 73.725 127.975 74.375 130.325C75.025 132.675 76.4001 134.5 78.5 135.8C79.9 136.6 81.4 137 83 137C84.6 137 86.1 136.6 87.5 135.8L105.35 146.149C103.65 147.849 102.125 149.675 100.775 151.625C99.4254 153.575 98.3004 155.7 97.4004 158H107.3C109.4 154.4 112.25 151.5 115.85 149.3C119.45 147.1 123.5 146 128 146C132.5 146 136.55 147.1 140.15 149.3C143.75 151.5 146.6 154.4 148.7 158H158.6C156.2 151.8 152.275 146.75 146.825 142.85C141.375 138.95 135.1 137 128 137C125.4 137 122.875 137.299 120.425 137.899C117.975 138.499 115.65 139.35 113.45 140.45L92 128C92 126.4 91.5998 124.9 90.7998 123.5C89.9998 122.1 88.8999 121 87.5 120.2ZM137 113L149.75 125.75L156.2 119.3L149.75 112.85L156.05 106.55L149.75 100.25L137 113ZM99.9502 106.55L106.4 112.85L99.9502 119.3L106.4 125.6L119 113L106.25 100.25L99.9502 106.55ZM128 68C113.2 68 100.325 72.5998 89.375 81.7998C78.425 90.9998 71.6498 102.6 69.0498 116.6C70.8498 114.4 73.0252 112.749 75.5752 111.649C78.1251 110.55 80.7503 110.049 83.4502 110.149C87.0502 101.35 92.8498 94.1245 100.85 88.4746C108.85 82.8246 117.9 80 128 80C134.5 80 140.6 81.2249 146.3 83.6748C152 86.1248 157.05 89.4495 161.45 93.6494C161.75 92.0495 162.325 90.3245 163.175 88.4746C164.025 86.6247 165.15 84.3997 166.55 81.7998C161.35 77.3999 155.475 73.9996 148.925 71.5996C142.375 69.1997 135.4 68 128 68ZM182 74C177 81.1999 173.75 86.325 172.25 89.375C170.75 92.425 170 95.3001 170 98C170 101.3 171.175 104.125 173.525 106.475C175.875 108.825 178.7 110 182 110C185.3 110 188.125 108.825 190.475 106.475C192.825 104.125 194 101.3 194 98C194 95.3001 193.25 92.425 191.75 89.375C190.25 86.325 187 81.1999 182 74Z" fill="url(#paint0_linear_1_23)"/>
<defs>
<linearGradient id="paint0_linear_1_23" x1="128" y1="3.09396" x2="128" y2="252.906" gradientUnits="userSpaceOnUse">
<stop stop-color="#E54732"/>
<stop offset="1" stop-color="#7F271C"/>
</linearGradient>
</defs>
</svg>
