<svg width="256" height="256" viewBox="0 0 256 256" fill="none" xmlns="http://www.w3.org/2000/svg">
<path d="M118 5.77346C124.188 2.2008 131.812 2.2008 138 5.77346L228.852 58.2266C235.039 61.7993 238.852 68.4017 238.852 75.5469V180.453C238.851 187.598 235.039 194.201 228.852 197.773L138 250.227C131.812 253.799 124.188 253.799 118 250.227L27.1484 197.773C20.9606 194.201 17.1486 187.598 17.1484 180.453V75.5469C17.1484 68.4017 20.9606 61.7993 27.1484 58.2266L118 5.77346ZM128 68C119.7 68 111.9 69.5746 104.6 72.7246C97.2997 75.8746 90.9497 80.1499 85.5498 85.5498C80.1499 90.9498 75.8746 97.2997 72.7246 104.6C69.5746 111.9 68 119.7 68 128C68 136.3 69.5748 144.1 72.7246 151.399C75.8746 158.699 80.1498 165.05 85.5498 170.45C90.9497 175.85 97.2999 180.124 104.6 183.274C111.9 186.424 119.7 188 128 188C136.3 188 144.1 186.424 151.4 183.274C158.7 180.124 165.05 175.85 170.45 170.45C175.85 165.05 180.125 158.699 183.275 151.399C186.425 144.1 188 136.3 188 128C188 119.7 186.425 111.9 183.275 104.6C180.125 97.2997 175.85 90.9498 170.45 85.5498C165.05 80.1499 158.7 75.8746 151.4 72.7246C144.1 69.5746 136.3 68 128 68ZM128 80C141.4 80 152.75 84.6502 162.05 93.9502C171.35 103.25 176 114.6 176 128C176 141.4 171.35 152.75 162.05 162.05C152.75 171.35 141.4 176 128 176C114.6 176 103.25 171.35 93.9502 162.05C84.6502 152.75 80 141.4 80 128C80 114.6 84.6503 103.25 93.9502 93.9502C103.25 84.6502 114.6 80 128 80ZM110 134H134V146H110V158H146V122H122V110H146V98H110V134Z" fill="url(#paint0_linear_1_11)"/>
<defs>
<linearGradient id="paint0_linear_1_11" x1="128" y1="3.09396" x2="128" y2="252.906" gradientUnits="userSpaceOnUse">
<stop stop-color="#329CE5"/>
<stop offset="1" stop-color="#1C577F"/>
</linearGradient>
</defs>
</svg>
