<svg width="256" height="256" viewBox="0 0 256 256" fill="none" xmlns="http://www.w3.org/2000/svg">
<path d="M118 5.77346C124.188 2.2008 131.812 2.2008 138 5.77346L228.852 58.2266C235.039 61.7993 238.852 68.4017 238.852 75.5469V180.453C238.851 187.598 235.039 194.201 228.852 197.773L138 250.227C131.812 253.799 124.188 253.799 118 250.227L27.1484 197.773C20.9606 194.201 17.1486 187.598 17.1484 180.453V75.5469C17.1484 68.4017 20.9606 61.7993 27.1484 58.2266L118 5.77346ZM92 62V74H74V182H182V74H164V62H152V74H104V62H92ZM170 110V170H86V110H170ZM98 146V158H110V146H98ZM122 146V158H134V146H122ZM146 146V158H158V146H146ZM98 122V134H110V122H98ZM122 122V134H134V122H122ZM146 122V134H158V122H146ZM170 86V98H86V86H170Z" fill="url(#paint0_linear_1_12)"/>
<defs>
<linearGradient id="paint0_linear_1_12" x1="128" y1="3.09396" x2="128" y2="252.906" gradientUnits="userSpaceOnUse">
<stop stop-color="#E5A032"/>
<stop offset="1" stop-color="#7F591C"/>
</linearGradient>
</defs>
</svg>
